<?xml version="1.0" encoding="utf-8"?>
<!-- Generator: Adobe Illustrator 24.0.3, SVG Export Plug-In . SVG Version: 6.00 Build 0)  -->
<svg version="1.1" xmlns="http://www.w3.org/2000/svg" xmlns:xlink="http://www.w3.org/1999/xlink" x="0px" y="0px"
	 viewBox="0 0 1920 997" style="enable-background:new 0 0 1920 997;" xml:space="preserve">
<g id="Frame_5">
	<g>
		<g>
			<g>
				<g>
					<path d="M967.5,997h-15c-0.41,0-0.83-0.01-1.24-0.02c-62.18-1.9-143.85-7.12-224.07-30.78
						c-63.05-18.59-128.35-46.42-205.51-87.58c-27.31-14.57-55.55-30.76-83.94-48.12C337.67,769.28,237.98,695.19,133,603.98
						c-27.79-24.15-56.1-49.68-84.15-75.88C40.65,520.43,36,509.72,36,498.5s4.65-21.93,12.85-29.59
						c28.05-26.21,56.37-51.74,84.15-75.88c104.99-91.21,204.67-165.31,304.74-226.52c28.39-17.36,56.63-33.55,83.94-48.12
						C598.84,77.23,664.14,49.4,727.19,30.8C807.41,7.14,889.08,1.92,951.26,0.02C951.67,0.01,952.09,0,952.5,0h15
						c0.41,0,0.83,0.01,1.24,0.02c62.18,1.9,143.85,7.12,224.07,30.78c63.04,18.59,128.35,46.42,205.51,87.58
						c27.31,14.57,55.56,30.76,83.94,48.12c100.07,61.21,199.75,135.31,304.74,226.52c27.78,24.14,56.1,49.67,84.15,75.88
						c8.2,7.66,12.85,18.37,12.85,29.59c0,11.22-4.65,21.93-12.85,29.59c-28.05,26.21-56.36,51.74-84.15,75.88
						c-104.99,91.21-204.67,165.31-304.74,226.52c-28.39,17.36-56.63,33.55-83.94,48.12c-77.16,41.16-142.46,68.98-205.51,87.58
						c-80.22,23.66-161.89,28.88-224.07,30.78C968.33,996.99,967.91,997,967.5,997z M953.12,916h13.76
						c57.25-1.77,131.92-6.53,203.02-27.49c57.64-17,118.11-42.85,190.3-81.36c25.91-13.82,52.76-29.21,79.79-45.75
						c96.2-58.84,192.33-130.34,293.88-218.57c16.48-14.32,33.16-29.15,49.86-44.33c-16.7-15.18-33.38-30.01-49.86-44.33
						C1632.32,365.94,1536.19,294.44,1440,235.6c-27.03-16.53-53.88-31.93-79.79-45.75c-72.19-38.51-132.66-64.36-190.3-81.36
						C1098.8,87.53,1024.13,82.77,966.88,81h-13.76c-57.25,1.77-131.92,6.53-203.02,27.49c-57.64,17-118.11,42.85-190.3,81.36
						c-25.91,13.82-52.76,29.21-79.79,45.75c-96.2,58.84-192.33,130.34-293.88,218.57c-16.48,14.32-33.16,29.15-49.86,44.33
						c16.7,15.18,33.38,30.01,49.86,44.33c101.56,88.23,197.69,159.73,293.88,218.57c27.03,16.54,53.88,31.93,79.79,45.75
						c72.19,38.5,132.66,64.35,190.3,81.36C821.2,909.47,895.87,914.23,953.12,916z"/>
				</g>
			</g>
			<g>
				<path d="M960,965c-62.96,0-124.06-12.34-181.6-36.68c-55.56-23.5-105.44-57.13-148.27-99.96s-76.46-92.71-99.96-148.27
					c-24.34-57.54-36.68-118.64-36.68-181.6c0-62.96,12.34-124.06,36.68-181.6c23.5-55.56,57.13-105.44,99.96-148.27
					s92.71-76.46,148.27-99.96C835.94,44.34,897.04,32,960,32c62.96,0,124.06,12.34,181.6,36.68
					c55.55,23.5,105.44,57.13,148.27,99.96s76.46,92.71,99.96,148.27c24.34,57.54,36.68,118.64,36.68,181.6
					c0,62.96-12.34,124.06-36.68,181.6c-23.5,55.55-57.13,105.44-99.96,148.27s-92.71,76.46-148.27,99.96
					C1084.06,952.66,1022.96,965,960,965z M960,113c-102.97,0-199.78,40.1-272.59,112.91C614.6,298.72,574.5,395.53,574.5,498.5
					s40.1,199.78,112.91,272.59C760.22,843.9,857.03,884,960,884s199.78-40.1,272.59-112.91S1345.5,601.47,1345.5,498.5
					s-40.1-199.78-112.91-272.59C1159.78,153.1,1062.97,113,960,113z"/>
			</g>
			<path d="M956.25,343.5c-85.05,0-154,68.95-154,154s68.95,154,154,154s154-68.95,154-154S1041.3,343.5,956.25,343.5z
				 M897.75,475.5c-26.23,0-47.5-21.27-47.5-47.5s21.27-47.5,47.5-47.5s47.5,21.27,47.5,47.5S923.98,475.5,897.75,475.5z"/>
		</g>
		<path d="M1883.92,499.13c0,0-514-467-924-467l0.33-0.13c-410,0-924,467-924,467"/>
		<path d="M36.25,499c0,0,514,467,924,467l-0.33,0.13c410,0,924-467,924-467"/>
	</g>
</g>
</svg>
