<svg xmlns="http://www.w3.org/2000/svg" viewBox="0 0 1848 997">
  <title>Eyeball</title>
  <g id="Eyelids">
    <path d="M971.25,1039.5h-15l-1.24,0c-62.18-1.9-143.85-7.12-224.07-30.78-63.05-18.6-128.35-46.43-205.51-87.58-27.31-14.57-55.55-30.76-83.94-48.12C341.42,811.78,241.73,737.69,136.75,646.48,109,622.33,80.65,596.8,52.6,570.59a40.49,40.49,0,0,1,0-59.18c28.05-26.22,56.36-51.75,84.15-75.89,105-91.21,204.67-165.3,304.74-226.52,28.38-17.36,56.63-33.55,83.94-48.12,77.16-41.15,142.46-69,205.51-87.58C811.16,49.64,892.83,44.42,955,42.52l1.24,0h15l1.24,0c62.18,1.9,143.85,7.12,224.07,30.78,63,18.6,128.35,46.43,205.51,87.58,27.32,14.57,55.56,30.76,83.94,48.12,100.07,61.22,199.76,135.31,304.74,226.52,27.79,24.14,56.1,49.67,84.15,75.89a40.49,40.49,0,0,1,0,59.18c-28,26.21-56.36,51.74-84.15,75.89-105,91.21-204.67,165.3-304.74,226.52-28.38,17.36-56.63,33.55-83.94,48.12-77.16,41.15-142.46,69-205.51,87.58-80.22,23.66-161.89,28.88-224.07,30.78Zm-14.38-81h13.76c57.25-1.77,131.92-6.53,203-27.49,57.64-17,118.11-42.86,190.3-81.36,25.92-13.82,52.76-29.21,79.8-45.75,96.19-58.84,192.32-130.34,293.88-218.57,16.48-14.32,33.16-29.15,49.86-44.33-16.7-15.18-33.38-30-49.86-44.33-101.56-88.23-197.69-159.73-293.88-218.57-27-16.53-53.88-31.93-79.8-45.75-72.19-38.5-132.66-64.36-190.3-81.36-71.1-21-145.77-25.72-203-27.49H956.87C899.62,125.27,825,130,753.85,151c-57.64,17-118.11,42.86-190.3,81.36-25.92,13.82-52.76,29.21-79.79,45.75-96.2,58.84-192.33,130.34-293.89,218.57C173.39,511,156.71,525.82,140,541c16.7,15.18,33.38,30,49.86,44.33C291.43,673.56,387.56,745.06,483.76,803.9c27,16.54,53.88,31.93,79.79,45.75C635.74,888.15,696.21,914,753.85,931,825,952,899.62,956.73,956.87,958.5Z" transform="translate(-39.75 -42.5)"/>
  </g>
  <g id="Iris">
    <path d="M963.75,1007.5a466.61,466.61,0,0,1-181.6-896.32,466.61,466.61,0,0,1,363.2,859.64A463.59,463.59,0,0,1,963.75,1007.5Zm0-852a385.5,385.5,0,1,0,272.59,112.91A383,383,0,0,0,963.75,155.5Z" transform="translate(-39.75 -42.5)"/>
  </g>
  <g id="Pupil">
    <path d="M960,386a154,154,0,1,0,154,154A154,154,0,0,0,960,386ZM901.5,518A47.5,47.5,0,1,1,949,470.5,47.5,47.5,0,0,1,901.5,518Z" transform="translate(-39.75 -42.5)"/>
  </g>
</svg>
