<?xml version="1.0" encoding="utf-8"?>
<!-- Generator: Adobe Illustrator 24.0.3, SVG Export Plug-In . SVG Version: 6.00 Build 0)  -->
<svg version="1.1" id="Layer_1" xmlns="http://www.w3.org/2000/svg" xmlns:xlink="http://www.w3.org/1999/xlink" x="0px" y="0px"
	 viewBox="0 0 1920 4651" style="enable-background:new 0 0 1920 4651;" xml:space="preserve">
<g id="f1">
	<g>
		<g>
			<g>
				<path d="M967.5,4651h-15c-0.41,0-0.83-0.01-1.24-0.02c-62.18-1.9-143.85-7.12-224.07-30.78
					c-63.05-18.59-128.35-46.42-205.51-87.58c-27.31-14.57-55.55-30.76-83.94-48.12c-100.07-61.21-199.75-135.31-304.74-226.52
					c-27.79-24.15-56.1-49.68-84.15-75.88c-8.2-7.66-12.85-18.37-12.85-29.59s4.65-21.93,12.85-29.59
					c28.05-26.21,56.37-51.74,84.15-75.88c104.99-91.21,204.67-165.31,304.74-226.52c28.39-17.36,56.63-33.55,83.94-48.12
					c77.16-41.16,142.46-68.98,205.51-87.58c80.22-23.66,161.89-28.88,224.07-30.78c0.41-0.01,0.83-0.02,1.24-0.02h15
					c0.41,0,0.83,0.01,1.24,0.02c62.18,1.9,143.85,7.12,224.07,30.78c63.04,18.59,128.35,46.42,205.51,87.58
					c27.31,14.57,55.56,30.76,83.94,48.12c100.07,61.21,199.75,135.31,304.74,226.52c27.78,24.14,56.1,49.67,84.15,75.88
					c8.2,7.66,12.85,18.37,12.85,29.59c0,11.22-4.65,21.93-12.85,29.59c-28.05,26.21-56.36,51.74-84.15,75.88
					c-104.99,91.21-204.67,165.31-304.74,226.52c-28.39,17.36-56.63,33.55-83.94,48.12c-77.16,41.16-142.46,68.98-205.51,87.58
					c-80.22,23.66-161.89,28.88-224.07,30.78C968.33,4650.99,967.91,4651,967.5,4651z M953.12,4570h13.76
					c57.25-1.77,131.92-6.53,203.02-27.49c57.64-17,118.11-42.85,190.3-81.36c25.91-13.82,52.76-29.21,79.79-45.75
					c96.2-58.84,192.33-130.34,293.88-218.57c16.48-14.32,33.16-29.15,49.86-44.33c-16.7-15.18-33.38-30.01-49.86-44.33
					c-101.56-88.23-197.69-159.73-293.88-218.57c-27.03-16.53-53.88-31.93-79.79-45.75c-72.19-38.51-132.66-64.36-190.3-81.36
					c-71.1-20.97-145.77-25.72-203.02-27.49h-13.76c-57.25,1.77-131.92,6.53-203.02,27.49c-57.64,17-118.11,42.85-190.3,81.36
					c-25.91,13.82-52.76,29.21-79.79,45.75c-96.2,58.84-192.33,130.34-293.88,218.57c-16.48,14.32-33.16,29.15-49.86,44.33
					c16.7,15.18,33.38,30.01,49.86,44.33c101.56,88.23,197.69,159.73,293.88,218.57c27.03,16.54,53.88,31.93,79.79,45.75
					c72.19,38.5,132.66,64.35,190.3,81.36C821.2,4563.47,895.87,4568.23,953.12,4570z"/>
			</g>
		</g>
		<g>
			<path d="M960,4619c-62.96,0-124.06-12.34-181.6-36.68c-55.56-23.5-105.44-57.13-148.27-99.96s-76.46-92.71-99.96-148.27
				c-24.34-57.54-36.68-118.64-36.68-181.6c0-62.96,12.34-124.06,36.68-181.6c23.5-55.56,57.13-105.44,99.96-148.27
				s92.71-76.46,148.27-99.96C835.94,3698.34,897.04,3686,960,3686c62.96,0,124.06,12.34,181.6,36.68
				c55.55,23.5,105.44,57.13,148.27,99.96s76.46,92.71,99.96,148.27c24.34,57.54,36.68,118.64,36.68,181.6
				c0,62.96-12.34,124.06-36.68,181.6c-23.5,55.55-57.13,105.44-99.96,148.27s-92.71,76.46-148.27,99.96
				C1084.06,4606.66,1022.96,4619,960,4619z M960,3767c-102.97,0-199.78,40.1-272.59,112.91
				c-72.81,72.81-112.91,169.62-112.91,272.59s40.1,199.78,112.91,272.59C760.22,4497.9,857.03,4538,960,4538
				s199.78-40.1,272.59-112.91s112.91-169.62,112.91-272.59s-40.1-199.78-112.91-272.59C1159.78,3807.1,1062.97,3767,960,3767z"/>
		</g>
		<path d="M956.25,3997.5c-85.05,0-154,68.95-154,154s68.95,154,154,154s154-68.95,154-154S1041.3,3997.5,956.25,3997.5z
			 M897.75,4129.5c-26.23,0-47.5-21.27-47.5-47.5s21.27-47.5,47.5-47.5s47.5,21.27,47.5,47.5S923.98,4129.5,897.75,4129.5z"/>
	</g>
	<path d="M1883.92,4153.13c0,0-514-467-924-467l0.33-0.13c-410,0-924,467-924,467"/>
	<path d="M36.25,4153c0,0,514,467,924,467l-0.33,0.13c410,0,924-467,924-467"/>
</g>
<g id="f2">
	<g>
		<g>
			<g>
				<path d="M967.33,3433h-15c-0.41,0-0.83-0.01-1.24-0.02c-62.18-1.9-143.85-7.12-224.07-30.78
					c-63.05-18.59-128.35-46.42-205.51-87.58c-27.31-14.57-55.55-30.76-83.94-48.12c-100.07-61.21-199.75-135.31-304.74-226.52
					c-27.79-24.15-56.1-49.68-84.15-75.88c-8.2-7.66-12.85-18.37-12.85-29.59s4.65-21.93,12.85-29.59
					c28.05-26.21,56.37-51.74,84.15-75.88c104.99-91.21,204.67-165.31,304.74-226.52c28.39-17.36,56.63-33.55,83.94-48.12
					c77.16-41.16,142.46-68.98,205.51-87.58c80.22-23.66,161.89-28.88,224.07-30.78c0.41-0.01,0.83-0.02,1.24-0.02h15
					c0.41,0,0.83,0.01,1.24,0.02c62.18,1.9,143.85,7.12,224.07,30.78c63.04,18.59,128.35,46.42,205.51,87.58
					c27.31,14.57,55.56,30.76,83.94,48.12c100.07,61.21,199.75,135.31,304.74,226.52c27.78,24.14,56.1,49.67,84.15,75.88
					c8.2,7.66,12.85,18.37,12.85,29.59c0,11.22-4.65,21.93-12.85,29.59c-28.05,26.21-56.36,51.74-84.15,75.88
					c-104.99,91.21-204.67,165.31-304.74,226.52c-28.39,17.36-56.63,33.55-83.94,48.12c-77.16,41.16-142.46,68.98-205.51,87.58
					c-80.22,23.66-161.89,28.88-224.07,30.78C968.16,3432.99,967.75,3433,967.33,3433z M952.95,3352h13.76
					c57.25-1.77,131.92-6.53,203.02-27.49c57.64-17,118.11-42.85,190.3-81.36c25.91-13.82,52.76-29.21,79.79-45.75
					c96.2-58.84,192.33-130.34,293.88-218.57c16.48-14.32,33.16-29.15,49.86-44.33c-16.7-15.18-33.38-30.01-49.86-44.33
					c-101.56-88.23-197.69-159.73-293.88-218.57c-27.03-16.53-53.88-31.93-79.79-45.75c-72.19-38.51-132.66-64.36-190.3-81.36
					c-71.1-20.97-145.77-25.72-203.02-27.49h-13.76c-57.25,1.77-131.92,6.53-203.02,27.49c-57.64,17-118.11,42.85-190.3,81.36
					c-25.91,13.82-52.76,29.21-79.79,45.75c-96.2,58.84-192.33,130.34-293.88,218.57c-16.48,14.32-33.16,29.15-49.86,44.33
					c16.7,15.18,33.38,30.01,49.86,44.33c101.56,88.23,197.69,159.73,293.88,218.57c27.03,16.54,53.88,31.93,79.79,45.75
					c72.19,38.5,132.66,64.35,190.3,81.36C821.03,3345.47,895.7,3350.23,952.95,3352z"/>
			</g>
		</g>
		<g>
			<path d="M959.83,3401c-62.96,0-124.06-12.34-181.6-36.68c-55.56-23.5-105.44-57.13-148.27-99.96s-76.46-92.71-99.96-148.27
				c-24.34-57.54-36.68-118.64-36.68-181.6c0-62.96,12.34-124.06,36.68-181.6c23.5-55.56,57.13-105.44,99.96-148.27
				s92.71-76.46,148.27-99.96c57.54-24.34,118.64-36.68,181.6-36.68c62.96,0,124.06,12.34,181.6,36.68
				c55.55,23.5,105.44,57.13,148.27,99.96s76.46,92.71,99.96,148.27c24.34,57.54,36.68,118.64,36.68,181.6
				c0,62.96-12.34,124.06-36.68,181.6c-23.5,55.55-57.13,105.44-99.96,148.27s-92.71,76.46-148.27,99.96
				C1083.89,3388.66,1022.79,3401,959.83,3401z M959.83,2549c-102.97,0-199.78,40.1-272.59,112.91
				c-72.81,72.81-112.91,169.62-112.91,272.59s40.1,199.78,112.91,272.59C760.05,3279.9,856.86,3320,959.83,3320
				s199.78-40.1,272.59-112.91s112.91-169.62,112.91-272.59s-40.1-199.78-112.91-272.59C1159.61,2589.1,1062.8,2549,959.83,2549z"/>
		</g>
		<path d="M956.08,2779.5c-85.05,0-154,68.95-154,154s68.95,154,154,154s154-68.95,154-154S1041.13,2779.5,956.08,2779.5z
			 M897.58,2911.5c-26.23,0-47.5-21.27-47.5-47.5s21.27-47.5,47.5-47.5s47.5,21.27,47.5,47.5S923.82,2911.5,897.58,2911.5z"/>
	</g>
	<g>
		<path d="M1883.75,2935.13c-234.78-212.15-601.49-459.64-924-467c0.11-0.04,0.22-0.08,0.33-0.13
			c-322.56,7.36-689.16,254.85-924,467c308,0.03,616-89.94,924-89.91C1267.97,2845.11,1575.86,2935.13,1883.75,2935.13z"/>
	</g>
	<g>
		<path d="M36.5,2941c234.78,212.15,601.49,459.64,924,467c-0.11,0.04-0.22,0.08-0.33,0.13c322.56-7.36,689.16-254.85,924-467
			c-308-0.03-616,89.94-924,89.91C652.28,3031.02,344.39,2941,36.5,2941z"/>
	</g>
</g>
<g id="f3">
	<g>
		<g>
			<g>
				<path d="M966.88,2215h-15c-0.41,0-0.83-0.01-1.24-0.02c-62.18-1.9-143.85-7.12-224.07-30.78
					c-63.05-18.59-128.35-46.42-205.51-87.58c-27.31-14.57-55.55-30.76-83.94-48.12c-100.07-61.21-199.75-135.31-304.74-226.52
					c-27.79-24.15-56.1-49.68-84.15-75.88c-8.2-7.66-12.85-18.37-12.85-29.59s4.65-21.93,12.85-29.59
					c28.05-26.21,56.37-51.74,84.15-75.88c104.99-91.21,204.67-165.31,304.74-226.52c28.39-17.36,56.63-33.55,83.94-48.12
					c77.16-41.16,142.46-68.98,205.51-87.58c80.22-23.66,161.89-28.88,224.07-30.78c0.41-0.01,0.83-0.02,1.24-0.02h15
					c0.41,0,0.83,0.01,1.24,0.02c62.18,1.9,143.85,7.12,224.07,30.78c63.04,18.59,128.35,46.42,205.51,87.58
					c27.31,14.57,55.56,30.76,83.94,48.12c100.07,61.21,199.75,135.31,304.74,226.52c27.78,24.14,56.1,49.67,84.15,75.88
					c8.2,7.66,12.85,18.37,12.85,29.59c0,11.22-4.65,21.93-12.85,29.59c-28.05,26.21-56.36,51.74-84.15,75.88
					c-104.99,91.21-204.67,165.31-304.74,226.52c-28.39,17.36-56.63,33.55-83.94,48.12c-77.16,41.16-142.46,68.98-205.51,87.58
					c-80.22,23.66-161.89,28.88-224.07,30.78C967.71,2214.99,967.3,2215,966.88,2215z M952.5,2134h13.76
					c57.25-1.77,131.92-6.53,203.02-27.49c57.64-17,118.11-42.85,190.3-81.36c25.91-13.82,52.76-29.21,79.79-45.75
					c96.2-58.84,192.33-130.34,293.88-218.57c16.48-14.32,33.16-29.15,49.86-44.33c-16.7-15.18-33.38-30.01-49.86-44.33
					c-101.56-88.23-197.69-159.73-293.88-218.57c-27.03-16.53-53.88-31.93-79.79-45.75c-72.19-38.51-132.66-64.36-190.3-81.36
					c-71.1-20.97-145.77-25.72-203.02-27.49H952.5c-57.25,1.77-131.92,6.53-203.02,27.49c-57.64,17-118.11,42.85-190.3,81.36
					c-25.91,13.82-52.76,29.21-79.79,45.75c-96.2,58.84-192.33,130.34-293.88,218.57c-16.48,14.32-33.16,29.15-49.86,44.33
					c16.7,15.18,33.38,30.01,49.86,44.33c101.56,88.23,197.69,159.73,293.88,218.57c27.03,16.54,53.88,31.93,79.79,45.75
					c72.19,38.5,132.66,64.35,190.3,81.36C820.58,2127.47,895.25,2132.23,952.5,2134z"/>
			</g>
		</g>
		<g>
			<path d="M959.38,2183c-62.96,0-124.06-12.34-181.6-36.68c-55.56-23.5-105.44-57.13-148.27-99.96s-76.46-92.71-99.96-148.27
				c-24.34-57.54-36.68-118.64-36.68-181.6c0-62.96,12.34-124.06,36.68-181.6c23.5-55.56,57.13-105.44,99.96-148.27
				s92.71-76.46,148.27-99.96c57.54-24.34,118.64-36.68,181.6-36.68c62.96,0,124.06,12.34,181.6,36.68
				c55.55,23.5,105.44,57.13,148.27,99.96s76.46,92.71,99.96,148.27c24.34,57.54,36.68,118.64,36.68,181.6
				c0,62.96-12.34,124.06-36.68,181.6c-23.5,55.55-57.13,105.44-99.96,148.27s-92.71,76.46-148.27,99.96
				C1083.44,2170.66,1022.34,2183,959.38,2183z M959.38,1331c-102.97,0-199.78,40.1-272.59,112.91
				c-72.81,72.81-112.91,169.62-112.91,272.59s40.1,199.78,112.91,272.59C759.61,2061.9,856.41,2102,959.38,2102
				s199.78-40.1,272.59-112.91s112.91-169.62,112.91-272.59s-40.1-199.78-112.91-272.59C1159.16,1371.1,1062.35,1331,959.38,1331z"
				/>
		</g>
		<path d="M955.63,1561.5c-85.05,0-154,68.95-154,154c0,85.05,68.95,154,154,154s154-68.95,154-154
			C1109.63,1630.45,1040.69,1561.5,955.63,1561.5z M897.13,1693.5c-26.23,0-47.5-21.27-47.5-47.5s21.27-47.5,47.5-47.5
			s47.5,21.27,47.5,47.5S923.37,1693.5,897.13,1693.5z"/>
	</g>
	<g>
		<path d="M1883.3,1717.13c-234.78-212.15-601.49-459.64-924-467c0.11-0.04,0.22-0.08,0.33-0.13c-322.56,7.36-689.16,254.85-924,467
			c308,0.03,616-234.02,924-234C1267.52,1483.02,1575.41,1717.13,1883.3,1717.13z"/>
	</g>
	<g>
		<path d="M36.95,1715.47c234.78,212.15,601.49,459.64,924,467c-0.11,0.04-0.22,0.08-0.33,0.13c322.56-7.36,689.16-254.85,924-467
			c-308-0.03-616,234.02-924,234C652.73,1949.58,344.84,1715.47,36.95,1715.47z"/>
	</g>
</g>
<g id="f4">
	<g>
		<g>
			<g>
				<path d="M966.88,997h-15c-0.41,0-0.83-0.01-1.24-0.02c-62.18-1.9-143.85-7.12-224.07-30.78
					c-63.05-18.59-128.35-46.42-205.51-87.58c-27.31-14.57-55.55-30.76-83.94-48.12c-100.07-61.21-199.75-135.31-304.74-226.52
					c-27.79-24.15-56.1-49.68-84.15-75.88c-8.2-7.66-12.85-18.37-12.85-29.59s4.65-21.93,12.85-29.59
					c28.05-26.21,56.37-51.74,84.15-75.88c104.99-91.21,204.67-165.31,304.74-226.52c28.39-17.36,56.63-33.55,83.94-48.12
					C598.22,77.23,663.52,49.4,726.57,30.8C806.8,7.14,888.46,1.92,950.64,0.02c0.41-0.01,0.83-0.02,1.24-0.02h15
					c0.41,0,0.83,0.01,1.24,0.02c62.18,1.9,143.85,7.12,224.07,30.78c63.04,18.59,128.35,46.42,205.51,87.58
					c27.31,14.57,55.56,30.76,83.94,48.12c100.07,61.21,199.75,135.31,304.74,226.52c27.78,24.14,56.1,49.67,84.15,75.88
					c8.2,7.66,12.85,18.37,12.85,29.59c0,11.22-4.65,21.93-12.85,29.59c-28.05,26.21-56.36,51.74-84.15,75.88
					c-104.99,91.21-204.67,165.31-304.74,226.52c-28.39,17.36-56.63,33.55-83.94,48.12c-77.16,41.16-142.46,68.98-205.51,87.58
					c-80.22,23.66-161.89,28.88-224.07,30.78C967.71,996.99,967.3,997,966.88,997z M952.5,916h13.76
					c57.25-1.77,131.92-6.53,203.02-27.49c57.64-17,118.11-42.85,190.3-81.36c25.91-13.82,52.76-29.21,79.79-45.75
					c96.2-58.84,192.33-130.34,293.88-218.57c16.48-14.32,33.16-29.15,49.86-44.33c-16.7-15.18-33.38-30.01-49.86-44.33
					c-101.56-88.23-197.69-159.73-293.88-218.57c-27.03-16.53-53.88-31.93-79.79-45.75c-72.19-38.51-132.66-64.36-190.3-81.36
					c-71.1-20.97-145.77-25.72-203.02-27.49H952.5c-57.25,1.77-131.92,6.53-203.02,27.49c-57.64,17-118.11,42.85-190.3,81.36
					c-25.91,13.82-52.76,29.21-79.79,45.75c-96.2,58.84-192.33,130.34-293.88,218.57c-16.48,14.32-33.16,29.15-49.86,44.33
					c16.7,15.18,33.38,30.01,49.86,44.33c101.56,88.23,197.69,159.73,293.88,218.57c27.03,16.54,53.88,31.93,79.79,45.75
					c72.19,38.5,132.66,64.35,190.3,81.36C820.58,909.47,895.25,914.23,952.5,916z"/>
			</g>
		</g>
		<g>
			<path d="M959.38,965c-62.96,0-124.06-12.34-181.6-36.68c-55.56-23.5-105.44-57.13-148.27-99.96s-76.46-92.71-99.96-148.27
				c-24.34-57.54-36.68-118.64-36.68-181.6c0-62.96,12.34-124.06,36.68-181.6c23.5-55.56,57.13-105.44,99.96-148.27
				s92.71-76.46,148.27-99.96C835.33,44.34,896.42,32,959.38,32c62.96,0,124.06,12.34,181.6,36.68
				c55.55,23.5,105.44,57.13,148.27,99.96s76.46,92.71,99.96,148.27c24.34,57.54,36.68,118.64,36.68,181.6
				c0,62.96-12.34,124.06-36.68,181.6c-23.5,55.55-57.13,105.44-99.96,148.27s-92.71,76.46-148.27,99.96
				C1083.44,952.66,1022.34,965,959.38,965z M959.38,113c-102.97,0-199.78,40.1-272.59,112.91
				c-72.81,72.81-112.91,169.62-112.91,272.59s40.1,199.78,112.91,272.59C759.61,843.9,856.41,884,959.38,884
				s199.78-40.1,272.59-112.91s112.91-169.62,112.91-272.59s-40.1-199.78-112.91-272.59C1159.16,153.1,1062.35,113,959.38,113z"/>
		</g>
		<path d="M955.63,343.5c-85.05,0-154,68.95-154,154s68.95,154,154,154s154-68.95,154-154S1040.69,343.5,955.63,343.5z
			 M897.13,475.5c-26.23,0-47.5-21.27-47.5-47.5s21.27-47.5,47.5-47.5s47.5,21.27,47.5,47.5S923.37,475.5,897.13,475.5z"/>
	</g>
	<g>
		<path d="M1883.3,499.13c-234.78-212.15-601.49-459.64-924-467c0.11-0.04,0.22-0.08,0.33-0.13c-322.56,7.36-689.16,254.85-924,467
			c308,0.03,616-304.02,924-304C1267.52,195.02,1575.41,499.13,1883.3,499.13z"/>
	</g>
	<g>
		<path d="M36.95,497.47c234.78,212.15,601.49,459.64,924,467c-0.11,0.04-0.22,0.08-0.33,0.13c322.56-7.36,689.16-254.85,924-467
			c-308-0.03-616,304.02-924,304C652.73,801.58,344.84,497.47,36.95,497.47z"/>
	</g>
</g>
</svg>
