<!-- Refresh by sureya from the Noun Project  -->
<svg xmlns="http://www.w3.org/2000/svg" xmlns:xlink="http://www.w3.org/1999/xlink" version="1.1" x="0px" y="0px" viewBox="0 0 100 100" enable-background="new 0 0 100 100" xml:space="preserve"><g><path d="M50,5.126C25.257,5.126,5.126,25.257,5.126,50S25.257,94.874,50,94.874S94.874,74.743,94.874,50S74.743,5.126,50,5.126z    M30.365,71.391l-0.581-0.505c-6.196-5.385-9.75-13.077-9.75-21.105c0-14.487,11.345-26.529,26-27.812v-5.26l8.657,7.508   l-8.657,7.961v-5.187C34.629,28.27,25.522,38.273,25.522,49.78c0,6.773,3.114,13.164,8.544,17.534l1.053,0.848L30.365,71.391z    M54.035,76.823v6.468l-8.414-8.302l8.414-8.527V71.8c11.647-1.37,20.544-11.104,20.442-22.605   c-0.055-6.271-2.713-12.106-7.483-16.43l-0.957-0.868l4.749-3.115l0.575,0.556c5.481,5.3,8.537,12.335,8.604,19.809   C80.09,63.432,68.774,75.419,54.035,76.823z"/></g></svg>