<!-- Information by Markus from the Noun Project -->
<?xml version="1.0" encoding="UTF-8"?>
<svg width="90px" height="90px" viewBox="0 0 90 90" version="1.1" xmlns="http://www.w3.org/2000/svg" xmlns:xlink="http://www.w3.org/1999/xlink">
    
            <g id="outer">
                <path d="M45,0 C20.1471863,0 0,20.1471863 0,45 C0,69.8528137 20.1471863,90 45,90 C69.8528137,90 90,69.8528137 90,45 C89.9720154,20.1587871 69.8412129,0.0279845868 45,0 Z M45,84.25531 C23.3198909,84.25531 5.74469,66.6801091 5.74469,45 C5.74469,23.3198909 23.3198909,5.74469 45,5.74469 C66.6801091,5.74469 84.25531,23.3198909 84.25531,45 C84.2307645,66.6699339 66.6699339,84.2307645 45,84.25531 L45,84.25531 Z"></path>
            </g>
            <g id="inner" transform="translate(11.489380, 11.489380)">
                <path d="M33.51062,0 C15.0032156,0 1.42108547e-14,15.0032156 1.42108547e-14,33.51062 C1.42108547e-14,52.0180244 15.0032156,67.02124 33.51062,67.02124 C52.0180244,67.02124 67.02124,52.0180244 67.02124,33.51062 C67.02124,24.6230494 63.490674,16.099489 57.2062125,9.8150275 C50.921751,3.53056603 42.3981906,0 33.51062,0 Z M33.51062,11.91492 C35.1419992,11.91492 36.612742,12.8976396 37.2370429,14.4048378 C37.8613437,15.912036 37.516257,17.6468956 36.3626963,18.8004534 C35.2091356,19.9540112 33.4742752,20.2990936 31.9670786,19.674789 C30.4598819,19.0504845 29.47717,17.5797392 29.47717,15.94836 C29.47717,14.8786218 29.9021149,13.852696 30.6585349,13.0962778 C31.4149549,12.3398597 32.4408818,11.91492 33.51062,11.91492 L33.51062,11.91492 Z M42.23862,50.2027 C36.86062,57.14923 29.47717,55.84393 29.47717,51.66705 L29.47717,34.76752 C29.47717,29.95428 25.25879,33.23822 21.36536,38.25201 C21.834011,35.3685418 23.007887,32.6455492 24.78262,30.32513 C30.16062,23.37866 37.5441,24.6839 37.5441,28.86078 L37.5441,45.76031 C37.5441,50.57355 41.76248,47.28967 45.65585,42.27582 C45.1873963,45.1593404 44.0135117,47.8823771 42.23862,50.2027 Z"></path>
            </g>
</svg>