<?xml version="1.0" encoding="utf-8"?>
<!-- Generator: Adobe Illustrator 24.0.3, SVG Export Plug-In . SVG Version: 6.00 Build 0)  -->
<svg version="1.1" id="Layer_1" xmlns="http://www.w3.org/2000/svg" xmlns:xlink="http://www.w3.org/1999/xlink" x="0px" y="0px"
	 viewBox="0 0 1862 626" style="enable-background:new 0 0 1862 626;" xml:space="preserve">
<g>
	<path d="M995.51,136.32L893.63,380.42l-111.51-244.1l-77.28,0.01l151.77,332.77c-8.42,20.12-19.8,46.31-29.11,62.27
		c-10.36,17.76-25.97,28.07-45.84,31.66c-8.13,1.47-25.76,2.68-38.37,3.53c0.01,14.64,0.04,41.01,0.01,59.48
		c14.31-0.5,34.41-0.92,46.64-1.75c11.44-0.77,22.67-3.25,33.36-7.55c23.46-9.45,41.32-25.76,55.25-46.41
		c14.77-21.89,25.66-45.89,35.85-70.14c27.94-66.5,151.52-363.85,151.52-363.85L995.51,136.32z"/>
	<path d="M1841.04,311.96c-12.58-13.18-28.62-20.33-45.47-26.2c-19.08-6.64-39.01-9.43-58.61-13.78
		c-15.92-3.54-30.66-9.78-43.22-20.71c-16.45-14.31-17.55-44.65,4.73-57.52c23.46-13.56,48.22-13.95,73.34-5.72
		c13.31,4.36,24.08,13.01,33.74,23l2.59,2.83c12.05-9.28,29.74-22.82,43.04-32.95l-2.07-2.84c-8.85-12.06-19.43-22.21-32.79-29.15
		c-22.58-11.74-46.74-16.84-75.45-16.73c-15.31-0.37-33.42,2.75-50.94,8.97c-17.24,6.12-32.66,15.16-45.16,28.87
		c-17.7,19.39-23.55,42.35-21.91,68.01c1.74,27.28,14.68,47.28,38.01,60.95c15.2,8.9,31.97,13.67,48.85,17.98
		c15.39,3.93,31,6.99,46.35,11.04c12.37,3.26,24.05,8.32,33.74,17.05c12.29,11.07,16.2,24.63,11.16,40.38
		c-3.45,10.77-11.52,17.79-21.01,23.22c-11.73,6.71-24.7,9.18-37.96,10.38c-18.91,1.7-37.41-0.26-53.8-10.24
		c-11.55-7.03-21.96-15.96-32.82-24.1l-3.04-2.38c-12.8,10.68-29.78,24.83-41.59,34.63l1.62,2.09
		c10.04,12.48,21.35,23.57,35.17,31.85c20.71,12.41,43.72,16.97,67.35,18.77c19.61,1.5,39.13,0.33,58.5-3.56
		c20.79-4.17,40.09-11.53,56.45-25.26c13.62-11.43,23.81-25.32,28.67-42.71c4.07-14.56,4.54-29.27,2.5-44.22
		C1858.82,337.72,1852.29,323.74,1841.04,311.96z"/>
	<path d="M523.33,135.37c-94.52,0-171.15,75.74-171.15,169.17S428.81,473.7,523.33,473.7s171.15-75.74,171.15-169.17
		S617.85,135.37,523.33,135.37z M523.68,416.87c-68.15,0-106.2-50.23-106.2-112.19c0-61.96,37.08-112.19,106.2-112.19
		c68.16,0,106.2,50.23,106.2,112.19C629.88,366.64,591.35,416.87,523.68,416.87z"/>
	<path d="M1346.72,139.61v25.56v2.5c-28.36-20.28-63.27-32.25-101.02-32.25v0.02c-18.98-0.15-37.64,2.53-55.83,8.65
		c-28.73,9.66-53.62,25.57-73.62,48.61c-35.79,41.23-48.81,89.03-39.69,142.54c6.3,37.02,23.7,68.58,51.79,93.69
		c34.45,30.79,73.87,45.06,117.35,44.63v0.01c38.61,0,74.23-12.53,102.93-33.66v3.6v22.93h60.97v-26.53v-300.3H1346.72z
		 M1351.15,300.24c-0.03,30.43-5.92,54.58-21.23,75.74c-15.4,21.29-36.59,33.78-62.29,38.54c-28.27,5.23-55.22,1.73-80.11-13.34
		c-22.09-13.37-35.95-33.21-42.98-57.62c-9.28-32.26-7.93-64.18,6.42-94.87c11.82-25.28,31.58-42.02,58.05-50.7
		c22.91-7.52,46.21-7.84,69.17-0.98c31.19,9.32,52.85,29.55,64.56,60.06C1348.64,272.43,1351.43,288.37,1351.15,300.24z"/>
	<rect x="1488.85" y="-0.03" width="61.12" height="466.47"/>
	<path d="M227.13,268.52c1.36-0.41,2.71-0.82,4.06-1.27c5.89-1.97,11.7-4.28,17.34-6.89c19.77-9.13,36.74-21.88,48.95-40.13
		c24.75-36.98,30.26-77.32,19.6-120.02c-9.47-37.93-32.38-65.28-67.29-82.68c-25.26-12.59-52.38-17.21-80.23-17.4L-0.2-0.03
		l0,466.48l70.82-0.01l0-187.77l83.31-0.02l90.62,187.81l82-0.02L227.13,268.52z M190.05,221.49c-12.04,2.35-24.43,3.59-36.7,3.86
		c-11.24,0.25-82.74,0.29-82.74,0.29L70.59,59.08c0,0,67.99-0.13,91.98,0.13c14.81,0.16,29.42,2.41,43.25,8.14
		c20.13,8.35,33.04,23.46,39.22,44.02c7.28,24.22,6.47,48.31-4.62,71.35C230.21,203.92,213.04,217,190.05,221.49z"/>
</g>
</svg>
